<svg xmlns="http://www.w3.org/2000/svg" width="830" height="190" viewBox="0 0 830 190" role="img" aria-labelledby="at2 ad2"><title id="at2">Contributions over the last 31 days</title><desc id="ad2">Daily contribution counts for the last 31 days, totalling 538, including private repositories.</desc><style>:root{--bg:#FFFBF2;--surface:#FFF6E6;--ink:#241802;--muted:#7A5A1E;--grid:#F0DFBE;--accent:#FF8A00;--glow:#FFB000;--scanInk:#7A5A1E;--scanOp:.06;--vig:.08;}@media(prefers-color-scheme:dark){:root{--bg:#0B0906;--surface:#14100A;--ink:#FFE9BE;--muted:#B8925A;--grid:#3A2C12;--accent:#FFB000;--glow:#FFD37A;--scanInk:#000000;--scanOp:.26;--vig:.38;}}.ax{fill:var(--muted);font-family:ui-monospace,'SF Mono',SFMono-Regular,Menlo,Consolas,'DejaVu Sans Mono','Liberation Mono',monospace;font-size:9px}.hd{fill:var(--muted);font-family:ui-monospace,'SF Mono',SFMono-Regular,Menlo,Consolas,'DejaVu Sans Mono','Liberation Mono',monospace;font-size:9px;letter-spacing:2px}.val{fill:var(--accent);font-family:ui-monospace,'SF Mono',SFMono-Regular,Menlo,Consolas,'DejaVu Sans Mono','Liberation Mono',monospace;font-size:13px;font-weight:700}.b{fill:var(--accent);transform-origin:center bottom;animation:rise 3.6s ease-out infinite}.b0{animation-delay:0.000s}.b1{animation-delay:0.035s}.b2{animation-delay:0.070s}.b3{animation-delay:0.105s}.b4{animation-delay:0.140s}.b5{animation-delay:0.175s}.b6{animation-delay:0.210s}.b7{animation-delay:0.245s}@keyframes rise{0%{transform:scaleY(0);opacity:.3}22%{transform:scaleY(1);opacity:1}92%{transform:scaleY(1);opacity:1}100%{transform:scaleY(1);opacity:.75}}</style><rect width="830" height="190" rx="14" fill="var(--bg)" stroke="var(--grid)"/><line x1="44" y1="30.0" x2="812" y2="30.0" stroke="var(--grid)" stroke-width="1"/><line x1="44" y1="93.0" x2="812" y2="93.0" stroke="var(--grid)" stroke-width="1"/><line x1="44" y1="156.0" x2="812" y2="156.0" stroke="var(--grid)" stroke-width="1"/><text class="ax" x="36" y="33.0" text-anchor="end">49</text><text class="ax" x="36" y="96.0" text-anchor="end">24</text><text class="ax" x="36" y="159.0" text-anchor="end">0</text><rect class="b b0" x="48.7" y="55.7" width="15.4" height="100.3" rx="1.5"/><rect class="b b1" x="73.5" y="125.1" width="15.4" height="30.9" rx="1.5"/><rect class="b b2" x="98.3" y="107.1" width="15.4" height="48.9" rx="1.5"/><rect class="b b3" x="123.0" y="120.0" width="15.4" height="36.0" rx="1.5"/><rect class="b b4" x="147.8" y="81.4" width="15.4" height="74.6" rx="1.5"/><rect class="b b5" x="172.6" y="140.6" width="15.4" height="15.4" rx="1.5"/><rect class="b b6" x="197.4" y="135.4" width="15.4" height="20.6" rx="1.5"/><rect class="b b7" x="222.1" y="138.0" width="15.4" height="18.0" rx="1.5"/><rect class="b b0" x="246.9" y="143.1" width="15.4" height="12.9" rx="1.5"/><rect class="b b1" x="271.7" y="68.6" width="15.4" height="87.4" rx="1.5"/><rect class="b b2" x="296.4" y="112.3" width="15.4" height="43.7" rx="1.5"/><rect class="b b3" x="321.2" y="120.0" width="15.4" height="36.0" rx="1.5"/><rect class="b b4" x="346.0" y="96.9" width="15.4" height="59.1" rx="1.5"/><rect class="b b5" x="370.8" y="104.6" width="15.4" height="51.4" rx="1.5"/><rect class="b b6" x="395.5" y="117.4" width="15.4" height="38.6" rx="1.5"/><rect class="b b7" x="420.3" y="150.9" width="15.4" height="5.1" rx="1.5"/><rect class="b b0" x="445.1" y="135.4" width="15.4" height="20.6" rx="1.5"/><rect class="b b1" x="469.9" y="66.0" width="15.4" height="90.0" rx="1.5"/><rect class="b b2" x="494.6" y="150.9" width="15.4" height="5.1" rx="1.5"/><rect class="b b3" x="519.4" y="153.4" width="15.4" height="2.6" rx="1.5"/><rect class="b b4" x="544.2" y="145.7" width="15.4" height="10.3" rx="1.5"/><rect class="b b5" x="569.0" y="127.7" width="15.4" height="28.3" rx="1.5"/><rect class="b b6" x="593.7" y="78.9" width="15.4" height="77.1" rx="1.5"/><rect class="b b7" x="618.5" y="112.3" width="15.4" height="43.7" rx="1.5"/><rect class="b b0" x="643.3" y="127.7" width="15.4" height="28.3" rx="1.5"/><rect class="b b1" x="668.1" y="96.9" width="15.4" height="59.1" rx="1.5"/><rect class="b b2" x="692.8" y="89.1" width="15.4" height="66.9" rx="1.5"/><rect class="b b3" x="717.6" y="30.0" width="15.4" height="126.0" rx="1.5"/><rect class="b b4" x="742.4" y="140.6" width="15.4" height="15.4" rx="1.5"/><rect class="b b5" x="767.2" y="40.3" width="15.4" height="115.7" rx="1.5"/><rect class="b b6" x="791.9" y="140.6" width="15.4" height="15.4" rx="1.5"/><text class="hd" x="44" y="18">CONTRIBUTIONS / LAST 31 DAYS</text><text class="val" x="812" y="19" text-anchor="end">538</text><text class="ax" x="44" y="178">31 days ago</text><text class="ax" x="812" y="178" text-anchor="end">today</text></svg>
